<svg width="31" height="31" viewBox="0 0 31 31" fill="none" xmlns="http://www.w3.org/2000/svg">
  <path d="M1.26466 2.95365L10.8154 28.4223C10.9096 28.6735 11.0786 28.8899 11.2995 29.0421C11.5204 29.1944 11.7826 29.2753 12.0509 29.274C12.3192 29.2726 12.5806 29.1891 12.8 29.0346C13.0194 28.8802 13.1861 28.6622 13.2778 28.41L17.104 17.8881C17.1695 17.7079 17.2738 17.5442 17.4094 17.4086C17.545 17.273 17.7087 17.1687 17.8889 17.1032L28.4108 13.277C28.663 13.1853 28.8809 13.0186 29.0354 12.7992C29.1899 12.5798 29.2734 12.3184 29.2748 12.0501C29.2761 11.7818 29.1952 11.5196 29.0429 11.2987C28.8906 11.0778 28.6743 10.9088 28.4231 10.8146L2.95444 1.26387C2.71848 1.17538 2.46203 1.1567 2.21574 1.21005C1.96944 1.2634 1.74371 1.38652 1.56551 1.56472C1.38732 1.74292 1.26419 1.96865 1.21084 2.21494C1.15749 2.46124 1.17617 2.71768 1.26466 2.95365Z" stroke="#333742" stroke-width="2.3125" stroke-linecap="round" stroke-linejoin="round"/>
  <path d="M17.4094 17.4086L29.1258 29.125" stroke="#333742" stroke-width="2.3125" stroke-linecap="round" stroke-linejoin="round"/>
</svg>