<svg width="33" height="32" viewBox="0 0 33 32" fill="none" xmlns="http://www.w3.org/2000/svg">
  <path d="M28 14V8" stroke="#333742" stroke-width="2.3125" stroke-linecap="round" stroke-linejoin="round"/>
  <path d="M31 11L25 11" stroke="#333742" stroke-width="2.3125" stroke-linecap="round" stroke-linejoin="round"/>
  <path d="M21 2V6" stroke="#333742" stroke-width="2.3125" stroke-linecap="round" stroke-linejoin="round"/>
  <path d="M23 4H19" stroke="#333742" stroke-width="2.3125" stroke-linecap="round" stroke-linejoin="round"/>
  <path d="M28 20.3072C25.7399 20.9353 23.3537 20.9518 21.0851 20.3552C18.8166 19.7585 16.7472 18.5701 15.0885 16.9115C13.4299 15.2528 12.2415 13.1834 11.6448 10.9149C11.0482 8.64636 11.0647 6.26006 11.6927 4L11.6931 4.00011C9.46395 4.62024 7.4362 5.81362 5.81184 7.46137C4.18748 9.10913 3.02321 11.1537 2.43502 13.3915C1.84683 15.6293 1.85525 17.9821 2.45943 20.2157C3.06361 22.4492 4.24247 24.4854 5.87858 26.1215C7.51468 27.7576 9.55092 28.9364 11.7844 29.5406C14.018 30.1448 16.3708 30.1532 18.6086 29.5649C20.8463 28.9767 22.8909 27.8124 24.5387 26.1881C26.1864 24.5637 27.3798 22.5359 27.9999 20.3068L28 20.3072Z" stroke="#333742" stroke-width="2.3125" stroke-linecap="round" stroke-linejoin="round"/>
</svg>
