<?xml version="1.0" standalone="no"?>
<!DOCTYPE svg PUBLIC "-//W3C//DTD SVG 20010904//EN"
 "http://www.w3.org/TR/2001/REC-SVG-20010904/DTD/svg10.dtd">
<svg version="1.0" xmlns="http://www.w3.org/2000/svg"
 width="260.000000pt" height="260.000000pt" viewBox="0 0 260.000000 260.000000"
 preserveAspectRatio="xMidYMid meet">
<metadata>
Created by potrace 1.14, written by Peter Selinger 2001-2017
</metadata>
<g transform="translate(0.000000,260.000000) scale(0.100000,-0.100000)"
fill="#000000" stroke="none">
<path d="M1870 2260 c-115 -18 -249 -79 -333 -151 -27 -23 -70 -73 -97 -111
-103 -146 -146 -313 -137 -523 10 -223 70 -377 197 -506 127 -129 266 -181
482 -180 135 0 208 11 325 47 51 16 98 25 123 22 22 -2 40 -2 40 0 0 2 -26 53
-57 114 -65 123 -51 117 -171 73 -98 -35 -231 -50 -324 -37 -237 35 -362 214
-361 517 0 186 38 299 135 402 132 139 363 161 586 56 29 -14 55 -23 56 -22 7
9 136 246 136 250 0 3 -24 1 -52 -4 -46 -8 -69 -5 -172 22 -131 34 -279 47
-376 31z"/>
<path d="M317 2219 c-38 -4 -86 -10 -108 -14 l-39 -7 2 -671 3 -671 75 -14
c50 -10 157 -15 320 -16 205 -1 258 2 323 17 167 39 290 132 337 252 19 48 23
80 24 160 0 89 -3 107 -28 163 -31 68 -74 112 -140 144 l-43 20 50 46 c77 72
92 109 92 222 0 118 -24 177 -96 245 -108 101 -245 136 -528 134 -97 -1 -207
-5 -244 -10z m458 -260 c21 -6 54 -26 72 -44 28 -28 33 -40 33 -79 0 -115 -57
-148 -262 -154 l-138 -4 0 146 0 146 128 0 c70 0 145 -5 167 -11z m26 -539
c50 -14 101 -50 117 -84 31 -64 9 -168 -43 -202 -60 -39 -226 -64 -338 -50
l-57 7 0 170 0 169 143 0 c78 0 158 -5 178 -10z"/>
<path d="M413 568 c-134 -56 -243 -104 -243 -107 0 -7 493 -211 498 -206 3 2
-16 50 -55 143 -4 9 15 12 76 12 l81 0 0 55 0 55 -79 0 -80 0 30 71 c16 40 29
73 29 75 0 8 -22 0 -257 -98z"/>
<path d="M1939 648 c5 -13 18 -47 30 -75 l21 -53 -80 0 -80 0 0 -55 0 -55 80
0 c44 0 80 -2 80 -4 0 -2 -13 -35 -29 -75 -17 -39 -26 -71 -22 -71 20 0 478
196 478 205 0 9 -459 205 -479 205 -4 0 -4 -10 1 -22z"/>
<path d="M860 465 l0 -55 440 0 440 0 0 55 0 55 -440 0 -440 0 0 -55z"/>
</g>
</svg>
