<?xml version="1.0" standalone="no"?>
<!DOCTYPE svg PUBLIC "-//W3C//DTD SVG 20010904//EN"
 "http://www.w3.org/TR/2001/REC-SVG-20010904/DTD/svg10.dtd">
<svg version="1.0" xmlns="http://www.w3.org/2000/svg"
 width="260.000000pt" height="260.000000pt" viewBox="0 0 260.000000 260.000000"
 preserveAspectRatio="xMidYMid meet">
<metadata>
Created by potrace 1.14, written by Peter Selinger 2001-2017
</metadata>
<g transform="translate(0.000000,260.000000) scale(0.100000,-0.100000)"
fill="#000000" stroke="none">
<path d="M0 1300 l0 -1300 1300 0 1300 0 0 1300 0 1300 -1300 0 -1300 0 0
-1300z m770 485 l0 -95 -215 0 -215 0 0 -140 0 -140 200 0 200 0 0 -95 0 -95
-200 0 -200 0 0 -145 0 -145 215 0 215 0 0 -95 0 -95 -315 0 -315 0 0 570 0
570 315 0 315 0 0 -95z m960 -475 l0 -570 -95 0 -95 0 0 56 0 57 -46 -43 c-72
-66 -122 -84 -234 -85 -86 0 -101 3 -160 31 -316 150 -316 643 0 793 48 23 67
26 160 26 121 0 169 -18 240 -86 l40 -39 0 215 0 215 95 0 95 0 0 -570z m400
95 l0 -475 165 0 165 0 0 -95 0 -95 -265 0 -265 0 0 570 0 570 100 0 100 0 0
-475z"/>
<path d="M1247 1389 c-55 -13 -90 -33 -124 -72 -101 -115 -76 -293 51 -372 44
-27 58 -30 126 -30 68 0 82 3 126 30 93 58 134 171 103 282 -19 68 -88 136
-158 157 -60 18 -69 18 -124 5z"/>
</g>
</svg>
